<mxfile host="Electron" modified="2023-06-04T20:08:48.930Z" agent="Mozilla/5.0 (Windows NT 10.0; Win64; x64) AppleWebKit/537.36 (KHTML, like Gecko) draw.io/21.2.8 Chrome/112.0.5615.165 Electron/24.2.0 Safari/537.36" etag="oSt0_kP29ATuDmhDsnh0" version="21.2.8" type="device">
  <diagram name="3-tier architecture" id="8fA6BZhq95hgFnjWJ-LH">
    <mxGraphModel dx="794" dy="519" grid="1" gridSize="1" guides="1" tooltips="1" connect="1" arrows="1" fold="1" page="1" pageScale="1" pageWidth="850" pageHeight="1100" math="0" shadow="0">
      <root>
        <mxCell id="0" />
        <mxCell id="1" parent="0" />
        <mxCell id="xAsY7gqHYfjSJlO6HL2r-32" value="" style="rounded=0;whiteSpace=wrap;html=1;fillStyle=auto;fillColor=#E3F0FF;strokeColor=none;" parent="1" vertex="1">
          <mxGeometry x="47" y="45" width="655" height="641" as="geometry" />
        </mxCell>
        <mxCell id="xAsY7gqHYfjSJlO6HL2r-1" value="" style="rounded=1;whiteSpace=wrap;html=1;fillColor=none;strokeColor=#3399FF;arcSize=1;" parent="1" vertex="1">
          <mxGeometry x="80" y="160" width="543" height="479" as="geometry" />
        </mxCell>
        <mxCell id="xAsY7gqHYfjSJlO6HL2r-2" value="Resource Group" style="image;sketch=0;aspect=fixed;html=1;points=[];align=center;fontSize=10;image=img/lib/mscae/ResourceGroup.svg;imageBackground=default;fontStyle=1" parent="1" vertex="1">
          <mxGeometry x="588" y="624" width="30" height="24" as="geometry" />
        </mxCell>
        <mxCell id="xAsY7gqHYfjSJlO6HL2r-3" value="" style="rounded=0;whiteSpace=wrap;html=1;fontSize=10;fillColor=none;" parent="1" vertex="1">
          <mxGeometry x="368" y="176" width="223" height="271" as="geometry" />
        </mxCell>
        <mxCell id="xAsY7gqHYfjSJlO6HL2r-4" value="App Service&lt;br style=&quot;font-size: 10px;&quot;&gt;Plan" style="image;aspect=fixed;html=1;points=[];align=center;fontSize=10;image=img/lib/azure2/app_services/App_Service_Plans.svg;fontStyle=1" parent="1" vertex="1">
          <mxGeometry x="383" y="192" width="40" height="40" as="geometry" />
        </mxCell>
        <mxCell id="xAsY7gqHYfjSJlO6HL2r-5" value="App Service&lt;br style=&quot;font-size: 10px;&quot;&gt;(Web App)" style="image;aspect=fixed;html=1;points=[];align=left;fontSize=10;image=img/lib/azure2/app_services/App_Services.svg;fontStyle=1;labelPosition=right;verticalLabelPosition=middle;verticalAlign=middle;spacingTop=0;perimeterSpacing=0;spacing=4;" parent="1" vertex="1">
          <mxGeometry x="464" y="208" width="50" height="50" as="geometry" />
        </mxCell>
        <mxCell id="xAsY7gqHYfjSJlO6HL2r-6" value="App Service&lt;br&gt;(API)" style="image;aspect=fixed;html=1;points=[];align=left;fontSize=10;image=img/lib/azure2/app_services/App_Services.svg;fontStyle=1;labelPosition=right;verticalLabelPosition=middle;verticalAlign=middle;spacing=5;" parent="1" vertex="1">
          <mxGeometry x="464" y="336" width="50" height="50" as="geometry" />
        </mxCell>
        <mxCell id="xAsY7gqHYfjSJlO6HL2r-7" value="Azure SQL&lt;br style=&quot;font-size: 10px;&quot;&gt;Database" style="image;aspect=fixed;html=1;points=[];align=center;fontSize=10;image=img/lib/azure2/databases/SQL_Database.svg;fontStyle=1" parent="1" vertex="1">
          <mxGeometry x="470.25" y="495" width="37.5" height="50" as="geometry" />
        </mxCell>
        <mxCell id="xAsY7gqHYfjSJlO6HL2r-8" value="" style="rounded=1;whiteSpace=wrap;html=1;fontSize=10;fillColor=none;arcSize=3;dashed=1;strokeColor=#3399FF;" parent="1" vertex="1">
          <mxGeometry x="111" y="175" width="224" height="432" as="geometry" />
        </mxCell>
        <mxCell id="xAsY7gqHYfjSJlO6HL2r-9" value="" style="rounded=1;whiteSpace=wrap;html=1;fillColor=none;dashed=1;strokeColor=#3399FF;dashPattern=1 1;arcSize=6;" parent="1" vertex="1">
          <mxGeometry x="144" y="192" width="127" height="63" as="geometry" />
        </mxCell>
        <mxCell id="xAsY7gqHYfjSJlO6HL2r-10" value="" style="rounded=1;whiteSpace=wrap;html=1;arcSize=10;fillColor=none;dashed=1;dashPattern=1 1;strokeColor=#3399FF;" parent="1" vertex="1">
          <mxGeometry x="144" y="303" width="127" height="64" as="geometry" />
        </mxCell>
        <mxCell id="xAsY7gqHYfjSJlO6HL2r-11" value="" style="rounded=1;whiteSpace=wrap;html=1;fontSize=10;fillColor=none;dashed=1;dashPattern=1 1;strokeColor=#3399FF;arcSize=4;" parent="1" vertex="1">
          <mxGeometry x="143" y="400" width="128" height="144" as="geometry" />
        </mxCell>
        <mxCell id="xAsY7gqHYfjSJlO6HL2r-12" value="web subnet" style="shape=image;verticalLabelPosition=bottom;labelBackgroundColor=#ffffff;verticalAlign=top;aspect=fixed;imageAspect=0;image=data:image/png,iVBORw0KGgoAAAANSUhEUgAAADUAAAAlCAYAAADiMKHrAAAHiUlEQVRYCe1ZWWxVVRStUROjMUqccUCcRZGoOIGA4IQ4xB/9M34YPtDEIBBkLm2BQmVoKbNTiRhRUBGQQoHS0vm1fX2dgE5v7Ez72tc3j8usXW7T6ZXe9+CHeJLm9t7es89Zd++91t6nMbgGR8w1iAn/gxrs1WAohA6HDxcdPgSCocF/VnVPO5YuD9z+oKp5w70clae8/iCKzT0oMtng9kW3mRJzD45UdaDd7htun6qeRQyqusWJn4taMO9ALRYfbgA31en0q1qcL9ND/DCr0w34NK0aydmNKDTaEI3jVYPy+INo7fHip6IWvL+nEk+u0+C93RU4dq4Tjd0e1aDMXR4crurAJ2nVuD+2ALO267DhtBl87vAGVNvjBNWg9J1ubM9twsc/VuHB1QWYs7sCSZlmmKzuiPKBYdtm92FLlgUzt+vwSEIR3timQ0KGCaUW+9UFRSK40MaQa8VHP1Ti5c2lmJKsReJJE/IN0edUgdGGxFNmzEjVYeKGYry+tQwbMy0oa7TD7lHnsVF7yuULYldes4TabUtyZVECqmpxgCwY7aANk9WDuBNGTE0pww0LsuXKe0OnW5X5EUFxr/5gCCWWHmzOsuDD7yvx/MYSvLOzXDyktdhhdaknh3A7ZA6RcBjOU1LKMCmpREKROUZPjnaEBcVvz0UaOtzCSK8la/HomiIJuXUnTcJQo11E7Xv8WKuPGzE9tUzyVi15hAVFD51rcyL+hFEY6c7leZi9q0I8xJCzua+chwaD7vEEQEJaf8os5PFwfKF4jHvRNl6ePIaAYsh5A0FhnpSzjWKMYdCfFJze6IR2MIhw9wUGmwAjeTyXVCw5tvGMRfZmH4Huh4Aiy3W7/cJEr2zR4pbFOX0hV9niCLf+VXtutLolFPlRr5ufJcDoMepYuNEHSiEFqvuGTDPe3lmOpxI1ciXLkVqtKioGVgQMYTIXKZ+lVP1Fl+oakXROvRLySNaKx6hjJA9WHsONGG8gJCUJSaH2oktI4dVkLR5f20sKBBRu8nAGlWf0Nj37a2kbYtMNSDhhxC8lrQLM5lanO7RJYL3koQNzjOSRdNosH63b5YfHH4LdG0SnM4CYlh4/PIEgLrT3kgJVfcyyXLy7q5e2SQpMXLWDMjDvYK3o2UNxBRgXV4g3d5RjTYYJGlOPWnMiwNQxCjT3yGpmxjadAM3R29DY7Yeu2YP0GgdiMhucokO/advwzq5yjI8vxNjYAiz7Vy9ho7b+YhizPmTF/cLGEty+NBcx87Pk54HVBVJesdaLdDCUmVNPJ2owLr5Qcmz9aQsOVnQhJa8TiVkdiNmSa0VKdiPm/12PsbH5uGtFHkgQXDiSSoFzKMhpmhZQBpjcCqgxS3NFUPdqWiPFJKnCUKS83LE8DzcuzMacPdWY96cJH6SZ8PkfzYipavVC12THAV27lEDjEwpxz8p8fHmwFkerO4UJ1eyAok1JSD/fiWmpZbh7RV4fqMfWFGHu/hqcqrGqMTng3bMN3Vh5zIAn1mkktxiC23ObkW+0I6POgbMGZ2+Vzk3UtLvASoFxf+uSHLy4qRRf/1WHPINNOtsBlkdxU9nswMp0g5RWz6wvliKV/dJeTQvOtzlHYWHgKxR7EhkJZ3qqTtoUsuDakyaUNw2UGqF05oGwX7tLqJI90n2r8jFhfTG+OlgnX33gEpe/c/qC0p5n1nVJKO4racXp2i7pxVgcqx0kF+Y59Yp7m7y5VEiClcfgKr5Pp5gLTPBcvU0oeNrW3rqLBeyCQ/XIvLQhtZthZ0t94uJs1dV2tGReSgo9wnaH2knJiT1uQFZ9l2jhYJt9oJTNElhbj1e+CsPm5sU54HXu7zUC2B8IIfpGQ1lt5CvFu7bdhRXHDGBBff2CbGHUhf80SLrw78ONIaDoMYYHS32q9uRNpZKQExI1WHJEj1M1XUPcPZzhK/Esp6Fb6Jv9FVNi0nclSMgwyt4o7mEwhW/neVTF0ujbI/o+FmMrsPSoXtT9SvZRgz8AN8wumy29tB9xBeKpRYcbhLh8wRDIA+HGEE8pLyrkYbC6kZrTiKlby0TsyIpxx40izMq7V/rK+nPZUb0AobwwWsikzEubJ3DZ8A8LihslMMYtexi2ITw1Yn6RSqnqRSYei0V/Tqd8FLIYw56kwAKA4Tbz0lpnwpCCMrf/dURQyotsRxhurJQZDjyjmJqiRfxxo4Qoi+IRokExM+KVNuouukRY2crftOisACJA6hNDbrRjVKDoMQp0RbMDO/OaMGuHDhOTivHSplLxGFU+Eu3pv8kcfbccuhDQsxuKpVhl+aYU1CowhSeK/gsqvzMU2eKTFWfvrpBakYcwazNMQr1qi1/a5Ryz1SM2WSmwlGIvxzVIVJGMUXlKMcwAoEeabF5sy2nqJY+4QgkTVvkUWbWDc1g68bT33lX5eGtHOTadsUjlEen5vCpQ3HB/8uBJ7Rf7L+CbQ/XgeUIkh/ucQ3Igo36277yEN4/J1ITb4A+pGpRiQDnLOFljBX+cIxyEKHNGuvJYjOfx/LdQtCNiUPSYLxCSMOE/DAgymkF2bbZ5pf6Mxg7nRgwq2oWv5vz/AEHoxClj2jcoAAAAAElFTkSuQmCC;fontSize=10;fontStyle=0" parent="1" vertex="1">
          <mxGeometry x="247" y="246" width="23.63" height="16.5" as="geometry" />
        </mxCell>
        <mxCell id="xAsY7gqHYfjSJlO6HL2r-13" value="app subnet" style="shape=image;verticalLabelPosition=bottom;labelBackgroundColor=#ffffff;verticalAlign=top;aspect=fixed;imageAspect=0;image=data:image/png,iVBORw0KGgoAAAANSUhEUgAAADUAAAAlCAYAAADiMKHrAAAHiUlEQVRYCe1ZWWxVVRStUROjMUqccUCcRZGoOIGA4IQ4xB/9M34YPtDEIBBkLm2BQmVoKbNTiRhRUBGQQoHS0vm1fX2dgE5v7Ez72tc3j8usXW7T6ZXe9+CHeJLm9t7es89Zd++91t6nMbgGR8w1iAn/gxrs1WAohA6HDxcdPgSCocF/VnVPO5YuD9z+oKp5w70clae8/iCKzT0oMtng9kW3mRJzD45UdaDd7htun6qeRQyqusWJn4taMO9ALRYfbgA31en0q1qcL9ND/DCr0w34NK0aydmNKDTaEI3jVYPy+INo7fHip6IWvL+nEk+u0+C93RU4dq4Tjd0e1aDMXR4crurAJ2nVuD+2ALO267DhtBl87vAGVNvjBNWg9J1ubM9twsc/VuHB1QWYs7sCSZlmmKzuiPKBYdtm92FLlgUzt+vwSEIR3timQ0KGCaUW+9UFRSK40MaQa8VHP1Ti5c2lmJKsReJJE/IN0edUgdGGxFNmzEjVYeKGYry+tQwbMy0oa7TD7lHnsVF7yuULYldes4TabUtyZVECqmpxgCwY7aANk9WDuBNGTE0pww0LsuXKe0OnW5X5EUFxr/5gCCWWHmzOsuDD7yvx/MYSvLOzXDyktdhhdaknh3A7ZA6RcBjOU1LKMCmpREKROUZPjnaEBcVvz0UaOtzCSK8la/HomiIJuXUnTcJQo11E7Xv8WKuPGzE9tUzyVi15hAVFD51rcyL+hFEY6c7leZi9q0I8xJCzua+chwaD7vEEQEJaf8os5PFwfKF4jHvRNl6ePIaAYsh5A0FhnpSzjWKMYdCfFJze6IR2MIhw9wUGmwAjeTyXVCw5tvGMRfZmH4Huh4Aiy3W7/cJEr2zR4pbFOX0hV9niCLf+VXtutLolFPlRr5ufJcDoMepYuNEHSiEFqvuGTDPe3lmOpxI1ciXLkVqtKioGVgQMYTIXKZ+lVP1Fl+oakXROvRLySNaKx6hjJA9WHsONGG8gJCUJSaH2oktI4dVkLR5f20sKBBRu8nAGlWf0Nj37a2kbYtMNSDhhxC8lrQLM5lanO7RJYL3koQNzjOSRdNosH63b5YfHH4LdG0SnM4CYlh4/PIEgLrT3kgJVfcyyXLy7q5e2SQpMXLWDMjDvYK3o2UNxBRgXV4g3d5RjTYYJGlOPWnMiwNQxCjT3yGpmxjadAM3R29DY7Yeu2YP0GgdiMhucokO/advwzq5yjI8vxNjYAiz7Vy9ho7b+YhizPmTF/cLGEty+NBcx87Pk54HVBVJesdaLdDCUmVNPJ2owLr5Qcmz9aQsOVnQhJa8TiVkdiNmSa0VKdiPm/12PsbH5uGtFHkgQXDiSSoFzKMhpmhZQBpjcCqgxS3NFUPdqWiPFJKnCUKS83LE8DzcuzMacPdWY96cJH6SZ8PkfzYipavVC12THAV27lEDjEwpxz8p8fHmwFkerO4UJ1eyAok1JSD/fiWmpZbh7RV4fqMfWFGHu/hqcqrGqMTng3bMN3Vh5zIAn1mkktxiC23ObkW+0I6POgbMGZ2+Vzk3UtLvASoFxf+uSHLy4qRRf/1WHPINNOtsBlkdxU9nswMp0g5RWz6wvliKV/dJeTQvOtzlHYWHgKxR7EhkJZ3qqTtoUsuDakyaUNw2UGqF05oGwX7tLqJI90n2r8jFhfTG+OlgnX33gEpe/c/qC0p5n1nVJKO4racXp2i7pxVgcqx0kF+Y59Yp7m7y5VEiClcfgKr5Pp5gLTPBcvU0oeNrW3rqLBeyCQ/XIvLQhtZthZ0t94uJs1dV2tGReSgo9wnaH2knJiT1uQFZ9l2jhYJt9oJTNElhbj1e+CsPm5sU54HXu7zUC2B8IIfpGQ1lt5CvFu7bdhRXHDGBBff2CbGHUhf80SLrw78ONIaDoMYYHS32q9uRNpZKQExI1WHJEj1M1XUPcPZzhK/Esp6Fb6Jv9FVNi0nclSMgwyt4o7mEwhW/neVTF0ujbI/o+FmMrsPSoXtT9SvZRgz8AN8wumy29tB9xBeKpRYcbhLh8wRDIA+HGEE8pLyrkYbC6kZrTiKlby0TsyIpxx40izMq7V/rK+nPZUb0AobwwWsikzEubJ3DZ8A8LihslMMYtexi2ITw1Yn6RSqnqRSYei0V/Tqd8FLIYw56kwAKA4Tbz0lpnwpCCMrf/dURQyotsRxhurJQZDjyjmJqiRfxxo4Qoi+IRokExM+KVNuouukRY2crftOisACJA6hNDbrRjVKDoMQp0RbMDO/OaMGuHDhOTivHSplLxGFU+Eu3pv8kcfbccuhDQsxuKpVhl+aYU1CowhSeK/gsqvzMU2eKTFWfvrpBakYcwazNMQr1qi1/a5Ryz1SM2WSmwlGIvxzVIVJGMUXlKMcwAoEeabF5sy2nqJY+4QgkTVvkUWbWDc1g68bT33lX5eGtHOTadsUjlEen5vCpQ3HB/8uBJ7Rf7L+CbQ/XgeUIkh/ucQ3Igo36277yEN4/J1ITb4A+pGpRiQDnLOFljBX+cIxyEKHNGuvJYjOfx/LdQtCNiUPSYLxCSMOE/DAgymkF2bbZ5pf6Mxg7nRgwq2oWv5vz/AEHoxClj2jcoAAAAAElFTkSuQmCC;fontSize=10;fontStyle=0" parent="1" vertex="1">
          <mxGeometry x="246" y="358" width="23.63" height="16.5" as="geometry" />
        </mxCell>
        <mxCell id="xAsY7gqHYfjSJlO6HL2r-14" value="private link&#xa;subnet" style="shape=image;verticalLabelPosition=bottom;labelBackgroundColor=#ffffff;verticalAlign=top;aspect=fixed;imageAspect=0;image=data:image/png,iVBORw0KGgoAAAANSUhEUgAAADUAAAAlCAYAAADiMKHrAAAHiUlEQVRYCe1ZWWxVVRStUROjMUqccUCcRZGoOIGA4IQ4xB/9M34YPtDEIBBkLm2BQmVoKbNTiRhRUBGQQoHS0vm1fX2dgE5v7Ez72tc3j8usXW7T6ZXe9+CHeJLm9t7es89Zd++91t6nMbgGR8w1iAn/gxrs1WAohA6HDxcdPgSCocF/VnVPO5YuD9z+oKp5w70clae8/iCKzT0oMtng9kW3mRJzD45UdaDd7htun6qeRQyqusWJn4taMO9ALRYfbgA31en0q1qcL9ND/DCr0w34NK0aydmNKDTaEI3jVYPy+INo7fHip6IWvL+nEk+u0+C93RU4dq4Tjd0e1aDMXR4crurAJ2nVuD+2ALO267DhtBl87vAGVNvjBNWg9J1ubM9twsc/VuHB1QWYs7sCSZlmmKzuiPKBYdtm92FLlgUzt+vwSEIR3timQ0KGCaUW+9UFRSK40MaQa8VHP1Ti5c2lmJKsReJJE/IN0edUgdGGxFNmzEjVYeKGYry+tQwbMy0oa7TD7lHnsVF7yuULYldes4TabUtyZVECqmpxgCwY7aANk9WDuBNGTE0pww0LsuXKe0OnW5X5EUFxr/5gCCWWHmzOsuDD7yvx/MYSvLOzXDyktdhhdaknh3A7ZA6RcBjOU1LKMCmpREKROUZPjnaEBcVvz0UaOtzCSK8la/HomiIJuXUnTcJQo11E7Xv8WKuPGzE9tUzyVi15hAVFD51rcyL+hFEY6c7leZi9q0I8xJCzua+chwaD7vEEQEJaf8os5PFwfKF4jHvRNl6ePIaAYsh5A0FhnpSzjWKMYdCfFJze6IR2MIhw9wUGmwAjeTyXVCw5tvGMRfZmH4Huh4Aiy3W7/cJEr2zR4pbFOX0hV9niCLf+VXtutLolFPlRr5ufJcDoMepYuNEHSiEFqvuGTDPe3lmOpxI1ciXLkVqtKioGVgQMYTIXKZ+lVP1Fl+oakXROvRLySNaKx6hjJA9WHsONGG8gJCUJSaH2oktI4dVkLR5f20sKBBRu8nAGlWf0Nj37a2kbYtMNSDhhxC8lrQLM5lanO7RJYL3koQNzjOSRdNosH63b5YfHH4LdG0SnM4CYlh4/PIEgLrT3kgJVfcyyXLy7q5e2SQpMXLWDMjDvYK3o2UNxBRgXV4g3d5RjTYYJGlOPWnMiwNQxCjT3yGpmxjadAM3R29DY7Yeu2YP0GgdiMhucokO/advwzq5yjI8vxNjYAiz7Vy9ho7b+YhizPmTF/cLGEty+NBcx87Pk54HVBVJesdaLdDCUmVNPJ2owLr5Qcmz9aQsOVnQhJa8TiVkdiNmSa0VKdiPm/12PsbH5uGtFHkgQXDiSSoFzKMhpmhZQBpjcCqgxS3NFUPdqWiPFJKnCUKS83LE8DzcuzMacPdWY96cJH6SZ8PkfzYipavVC12THAV27lEDjEwpxz8p8fHmwFkerO4UJ1eyAok1JSD/fiWmpZbh7RV4fqMfWFGHu/hqcqrGqMTng3bMN3Vh5zIAn1mkktxiC23ObkW+0I6POgbMGZ2+Vzk3UtLvASoFxf+uSHLy4qRRf/1WHPINNOtsBlkdxU9nswMp0g5RWz6wvliKV/dJeTQvOtzlHYWHgKxR7EhkJZ3qqTtoUsuDakyaUNw2UGqF05oGwX7tLqJI90n2r8jFhfTG+OlgnX33gEpe/c/qC0p5n1nVJKO4racXp2i7pxVgcqx0kF+Y59Yp7m7y5VEiClcfgKr5Pp5gLTPBcvU0oeNrW3rqLBeyCQ/XIvLQhtZthZ0t94uJs1dV2tGReSgo9wnaH2knJiT1uQFZ9l2jhYJt9oJTNElhbj1e+CsPm5sU54HXu7zUC2B8IIfpGQ1lt5CvFu7bdhRXHDGBBff2CbGHUhf80SLrw78ONIaDoMYYHS32q9uRNpZKQExI1WHJEj1M1XUPcPZzhK/Esp6Fb6Jv9FVNi0nclSMgwyt4o7mEwhW/neVTF0ujbI/o+FmMrsPSoXtT9SvZRgz8AN8wumy29tB9xBeKpRYcbhLh8wRDIA+HGEE8pLyrkYbC6kZrTiKlby0TsyIpxx40izMq7V/rK+nPZUb0AobwwWsikzEubJ3DZ8A8LihslMMYtexi2ITw1Yn6RSqnqRSYei0V/Tqd8FLIYw56kwAKA4Tbz0lpnwpCCMrf/dURQyotsRxhurJQZDjyjmJqiRfxxo4Qoi+IRokExM+KVNuouukRY2crftOisACJA6hNDbrRjVKDoMQp0RbMDO/OaMGuHDhOTivHSplLxGFU+Eu3pv8kcfbccuhDQsxuKpVhl+aYU1CowhSeK/gsqvzMU2eKTFWfvrpBakYcwazNMQr1qi1/a5Ryz1SM2WSmwlGIvxzVIVJGMUXlKMcwAoEeabF5sy2nqJY+4QgkTVvkUWbWDc1g68bT33lX5eGtHOTadsUjlEen5vCpQ3HB/8uBJ7Rf7L+CbQ/XgeUIkh/ucQ3Igo36277yEN4/J1ITb4A+pGpRiQDnLOFljBX+cIxyEKHNGuvJYjOfx/LdQtCNiUPSYLxCSMOE/DAgymkF2bbZ5pf6Mxg7nRgwq2oWv5vz/AEHoxClj2jcoAAAAAElFTkSuQmCC;fontSize=10;fontStyle=0" parent="1" vertex="1">
          <mxGeometry x="246" y="536" width="23.63" height="16.5" as="geometry" />
        </mxCell>
        <mxCell id="xAsY7gqHYfjSJlO6HL2r-15" value="Private Endpoint&lt;br&gt;(10.100.0.132)" style="image;aspect=fixed;html=1;points=[];align=center;fontSize=9;image=img/lib/azure2/networking/Private_Endpoint.svg;fontStyle=1" parent="1" vertex="1">
          <mxGeometry x="192" y="417" width="32.76" height="30" as="geometry" />
        </mxCell>
        <mxCell id="xAsY7gqHYfjSJlO6HL2r-16" value="" style="endArrow=oval;html=1;rounded=1;entryX=0.575;entryY=0.476;entryDx=0;entryDy=0;entryPerimeter=0;exitX=-0.014;exitY=0.429;exitDx=0;exitDy=0;exitPerimeter=0;edgeStyle=orthogonalEdgeStyle;endFill=1;dashed=1;" parent="1" source="xAsY7gqHYfjSJlO6HL2r-5" target="xAsY7gqHYfjSJlO6HL2r-9" edge="1">
          <mxGeometry width="50" height="50" relative="1" as="geometry">
            <mxPoint x="408" y="343" as="sourcePoint" />
            <mxPoint x="447" y="295" as="targetPoint" />
            <Array as="points">
              <mxPoint x="444" y="230" />
              <mxPoint x="444" y="279" />
              <mxPoint x="351" y="279" />
              <mxPoint x="351" y="222" />
            </Array>
          </mxGeometry>
        </mxCell>
        <mxCell id="xAsY7gqHYfjSJlO6HL2r-17" value="VNET&lt;br&gt;Integration" style="text;html=1;strokeColor=none;fillColor=none;align=center;verticalAlign=middle;whiteSpace=wrap;rounded=0;fontSize=10;fontStyle=1" parent="1" vertex="1">
          <mxGeometry x="153" y="208.5" width="60" height="30" as="geometry" />
        </mxCell>
        <mxCell id="xAsY7gqHYfjSJlO6HL2r-18" value="" style="endArrow=oval;html=1;rounded=1;entryX=0.496;entryY=0.453;entryDx=0;entryDy=0;entryPerimeter=0;exitX=0.052;exitY=0.567;exitDx=0;exitDy=0;exitPerimeter=0;edgeStyle=orthogonalEdgeStyle;dashed=1;endFill=1;" parent="1" source="xAsY7gqHYfjSJlO6HL2r-6" target="xAsY7gqHYfjSJlO6HL2r-10" edge="1">
          <mxGeometry width="50" height="50" relative="1" as="geometry">
            <mxPoint x="405" y="382" as="sourcePoint" />
            <mxPoint x="455" y="332" as="targetPoint" />
            <Array as="points">
              <mxPoint x="399" y="364" />
              <mxPoint x="399" y="332" />
            </Array>
          </mxGeometry>
        </mxCell>
        <mxCell id="xAsY7gqHYfjSJlO6HL2r-19" value="VNET&lt;br&gt;Integration" style="text;html=1;strokeColor=none;fillColor=none;align=center;verticalAlign=middle;whiteSpace=wrap;rounded=0;fontSize=10;fontStyle=1" parent="1" vertex="1">
          <mxGeometry x="147" y="320" width="60" height="30" as="geometry" />
        </mxCell>
        <mxCell id="xAsY7gqHYfjSJlO6HL2r-20" value="" style="endArrow=none;html=1;rounded=1;entryX=0.46;entryY=0.026;entryDx=0;entryDy=0;entryPerimeter=0;exitX=0.406;exitY=0.992;exitDx=0;exitDy=0;exitPerimeter=0;edgeStyle=orthogonalEdgeStyle;dashed=1;strokeColor=#000000;startArrow=classic;startFill=1;endFill=0;" parent="1" source="xAsY7gqHYfjSJlO6HL2r-6" target="xAsY7gqHYfjSJlO6HL2r-15" edge="1">
          <mxGeometry width="50" height="50" relative="1" as="geometry">
            <mxPoint x="408" y="424" as="sourcePoint" />
            <mxPoint x="458" y="374" as="targetPoint" />
            <Array as="points">
              <mxPoint x="484" y="404" />
              <mxPoint x="207" y="404" />
            </Array>
          </mxGeometry>
        </mxCell>
        <mxCell id="xAsY7gqHYfjSJlO6HL2r-21" value="Private Endpoint&lt;br&gt;(10.100.0.133)" style="image;aspect=fixed;html=1;points=[];align=center;fontSize=9;image=img/lib/azure2/networking/Private_Endpoint.svg;fontStyle=1" parent="1" vertex="1">
          <mxGeometry x="189" y="481" width="32.76" height="30" as="geometry" />
        </mxCell>
        <mxCell id="xAsY7gqHYfjSJlO6HL2r-22" value="" style="endArrow=none;html=1;rounded=1;entryX=0.98;entryY=0.59;entryDx=0;entryDy=0;entryPerimeter=0;exitX=-0.067;exitY=0.526;exitDx=0;exitDy=0;exitPerimeter=0;edgeStyle=orthogonalEdgeStyle;dashed=1;startArrow=classic;startFill=1;endFill=0;" parent="1" source="xAsY7gqHYfjSJlO6HL2r-7" target="xAsY7gqHYfjSJlO6HL2r-21" edge="1">
          <mxGeometry width="50" height="50" relative="1" as="geometry">
            <mxPoint x="380" y="544" as="sourcePoint" />
            <mxPoint x="430" y="494" as="targetPoint" />
          </mxGeometry>
        </mxCell>
        <mxCell id="xAsY7gqHYfjSJlO6HL2r-25" value="" style="edgeStyle=orthogonalEdgeStyle;rounded=0;orthogonalLoop=1;jettySize=auto;html=1;strokeColor=#3399FF;dashed=1;strokeWidth=2;" parent="1" source="xAsY7gqHYfjSJlO6HL2r-24" target="xAsY7gqHYfjSJlO6HL2r-5" edge="1">
          <mxGeometry relative="1" as="geometry" />
        </mxCell>
        <mxCell id="xAsY7gqHYfjSJlO6HL2r-28" value="" style="edgeStyle=orthogonalEdgeStyle;rounded=1;orthogonalLoop=1;jettySize=auto;html=1;dashed=1;strokeWidth=2;strokeColor=#FF0000;" parent="1" source="xAsY7gqHYfjSJlO6HL2r-24" edge="1">
          <mxGeometry relative="1" as="geometry">
            <mxPoint x="553" y="366" as="targetPoint" />
            <Array as="points">
              <mxPoint x="489" y="127" />
              <mxPoint x="656" y="127" />
              <mxPoint x="656" y="366" />
            </Array>
          </mxGeometry>
        </mxCell>
        <mxCell id="xAsY7gqHYfjSJlO6HL2r-24" value="Internet" style="outlineConnect=0;dashed=0;verticalLabelPosition=middle;verticalAlign=middle;align=left;html=1;shape=mxgraph.aws3.internet_3;fillColor=#D2D3D3;gradientColor=none;aspect=fixed;fontSize=10;fontStyle=1;labelPosition=right;" parent="1" vertex="1">
          <mxGeometry x="459.53999999999996" y="64" width="58.92" height="40" as="geometry" />
        </mxCell>
        <mxCell id="xAsY7gqHYfjSJlO6HL2r-29" value="&lt;b style=&quot;font-size: 20px;&quot;&gt;&lt;font color=&quot;#ff0000&quot; style=&quot;font-size: 20px;&quot;&gt;X&lt;/font&gt;&lt;/b&gt;" style="text;html=1;strokeColor=none;fillColor=none;align=center;verticalAlign=middle;whiteSpace=wrap;rounded=0;fontSize=20;" parent="1" vertex="1">
          <mxGeometry x="640" y="245" width="34" height="30" as="geometry" />
        </mxCell>
        <mxCell id="xAsY7gqHYfjSJlO6HL2r-31" value="VNET" style="image;aspect=fixed;html=1;points=[];align=center;fontSize=10;image=img/lib/azure2/networking/Virtual_Networks.svg;fontStyle=1;labelBackgroundColor=default;imageBackground=default;" parent="1" vertex="1">
          <mxGeometry x="290" y="595" width="40.2" height="24" as="geometry" />
        </mxCell>
      </root>
    </mxGraphModel>
  </diagram>
</mxfile>
